<svg width="208" height="148" viewBox="0 0 208 148" fill="none" xmlns="http://www.w3.org/2000/svg">
<rect width="208" height="148" fill="white"/>
<rect width="208" height="48" fill="#4387FD"/>
<rect x="69" y="100" width="70" height="48" fill="black"/>
<g filter="url(#filter0_d)">
<path d="M27.6523 27.6055C27.6523 26.8555 27.3867 26.2773 26.8555 25.8711C26.332 25.4648 25.3828 25.0547 24.0078 24.6406C22.6328 24.2266 21.5391 23.7656 20.7266 23.2578C19.1719 22.2812 18.3945 21.0078 18.3945 19.4375C18.3945 18.0625 18.9531 16.9297 20.0703 16.0391C21.1953 15.1484 22.6523 14.7031 24.4414 14.7031C25.6289 14.7031 26.6875 14.9219 27.6172 15.3594C28.5469 15.7969 29.2773 16.4219 29.8086 17.2344C30.3398 18.0391 30.6055 18.9336 30.6055 19.918H27.6523C27.6523 19.0273 27.3711 18.332 26.8086 17.832C26.2539 17.3242 25.457 17.0703 24.418 17.0703C23.4492 17.0703 22.6953 17.2773 22.1562 17.6914C21.625 18.1055 21.3594 18.6836 21.3594 19.4258C21.3594 20.0508 21.6484 20.5742 22.2266 20.9961C22.8047 21.4102 23.7578 21.8164 25.0859 22.2148C26.4141 22.6055 27.4805 23.0547 28.2852 23.5625C29.0898 24.0625 29.6797 24.6406 30.0547 25.2969C30.4297 25.9453 30.6172 26.707 30.6172 27.582C30.6172 29.0039 30.0703 30.1367 28.9766 30.9805C27.8906 31.8164 26.4141 32.2344 24.5469 32.2344C23.3125 32.2344 22.1758 32.0078 21.1367 31.5547C20.1055 31.0938 19.3008 30.4609 18.7227 29.6562C18.1523 28.8516 17.8672 27.9141 17.8672 26.8438H20.832C20.832 27.8125 21.1523 28.5625 21.793 29.0938C22.4336 29.625 23.3516 29.8906 24.5469 29.8906C25.5781 29.8906 26.3516 29.6836 26.8672 29.2695C27.3906 28.8477 27.6523 28.293 27.6523 27.6055ZM38.5273 32.2344C36.7227 32.2344 35.2578 31.668 34.1328 30.5352C33.0156 29.3945 32.457 27.8789 32.457 25.9883V25.6367C32.457 24.3711 32.6992 23.2422 33.1836 22.25C33.6758 21.25 34.3633 20.4727 35.2461 19.918C36.1289 19.3633 37.1133 19.0859 38.1992 19.0859C39.9258 19.0859 41.2578 19.6367 42.1953 20.7383C43.1406 21.8398 43.6133 23.3984 43.6133 25.4141V26.5625H35.3281C35.4141 27.6094 35.7617 28.4375 36.3711 29.0469C36.9883 29.6562 37.7617 29.9609 38.6914 29.9609C39.9961 29.9609 41.0586 29.4336 41.8789 28.3789L43.4141 29.8438C42.9062 30.6016 42.2266 31.1914 41.375 31.6133C40.5312 32.0273 39.582 32.2344 38.5273 32.2344ZM38.1875 21.3711C37.4062 21.3711 36.7734 21.6445 36.2891 22.1914C35.8125 22.7383 35.5078 23.5 35.375 24.4766H40.8008V24.2656C40.7383 23.3125 40.4844 22.5938 40.0391 22.1094C39.5938 21.6172 38.9766 21.3711 38.1875 21.3711ZM52.4727 21.9219C52.0977 21.8594 51.7109 21.8281 51.3125 21.8281C50.0078 21.8281 49.1289 22.3281 48.6758 23.3281V32H45.8281V19.3203H48.5469L48.6172 20.7383C49.3047 19.6367 50.2578 19.0859 51.4766 19.0859C51.8828 19.0859 52.2188 19.1406 52.4844 19.25L52.4727 21.9219ZM58.9531 28.3906L61.6367 19.3203H64.5781L60.1836 32H57.7109L53.2812 19.3203H56.2344L58.9531 28.3906ZM69.3945 32H66.5469V19.3203H69.3945V32ZM66.3711 16.0273C66.3711 15.5898 66.5078 15.2266 66.7812 14.9375C67.0625 14.6484 67.4609 14.5039 67.9766 14.5039C68.4922 14.5039 68.8906 14.6484 69.1719 14.9375C69.4531 15.2266 69.5938 15.5898 69.5938 16.0273C69.5938 16.457 69.4531 16.8164 69.1719 17.1055C68.8906 17.3867 68.4922 17.5273 67.9766 17.5273C67.4609 17.5273 67.0625 17.3867 66.7812 17.1055C66.5078 16.8164 66.3711 16.457 66.3711 16.0273ZM77.7148 29.9609C78.4258 29.9609 79.0156 29.7539 79.4844 29.3398C79.9531 28.9258 80.2031 28.4141 80.2344 27.8047H82.918C82.8867 28.5938 82.6406 29.332 82.1797 30.0195C81.7188 30.6992 81.0938 31.2383 80.3047 31.6367C79.5156 32.0352 78.6641 32.2344 77.75 32.2344C75.9766 32.2344 74.5703 31.6602 73.5312 30.5117C72.4922 29.3633 71.9727 27.7773 71.9727 25.7539V25.4609C71.9727 23.5312 72.4883 21.9883 73.5195 20.832C74.5508 19.668 75.957 19.0859 77.7383 19.0859C79.2461 19.0859 80.4727 19.5273 81.418 20.4102C82.3711 21.2852 82.8711 22.4375 82.918 23.8672H80.2344C80.2031 23.1406 79.9531 22.543 79.4844 22.0742C79.0234 21.6055 78.4336 21.3711 77.7148 21.3711C76.793 21.3711 76.082 21.707 75.582 22.3789C75.082 23.043 74.8281 24.0547 74.8203 25.4141V25.8711C74.8203 27.2461 75.0664 28.2734 75.5586 28.9531C76.0586 29.625 76.7773 29.9609 77.7148 29.9609ZM90.6523 32.2344C88.8477 32.2344 87.3828 31.668 86.2578 30.5352C85.1406 29.3945 84.582 27.8789 84.582 25.9883V25.6367C84.582 24.3711 84.8242 23.2422 85.3086 22.25C85.8008 21.25 86.4883 20.4727 87.3711 19.918C88.2539 19.3633 89.2383 19.0859 90.3242 19.0859C92.0508 19.0859 93.3828 19.6367 94.3203 20.7383C95.2656 21.8398 95.7383 23.3984 95.7383 25.4141V26.5625H87.4531C87.5391 27.6094 87.8867 28.4375 88.4961 29.0469C89.1133 29.6562 89.8867 29.9609 90.8164 29.9609C92.1211 29.9609 93.1836 29.4336 94.0039 28.3789L95.5391 29.8438C95.0312 30.6016 94.3516 31.1914 93.5 31.6133C92.6562 32.0273 91.707 32.2344 90.6523 32.2344ZM90.3125 21.3711C89.5312 21.3711 88.8984 21.6445 88.4141 22.1914C87.9375 22.7383 87.6328 23.5 87.5 24.4766H92.9258V24.2656C92.8633 23.3125 92.6094 22.5938 92.1641 22.1094C91.7188 21.6172 91.1016 21.3711 90.3125 21.3711ZM113.762 28.0273H107.152L105.77 32H102.688L109.133 14.9375H111.793L118.25 32H115.156L113.762 28.0273ZM107.984 25.6367H112.93L110.457 18.5586L107.984 25.6367ZM125.129 29.9609C125.84 29.9609 126.43 29.7539 126.898 29.3398C127.367 28.9258 127.617 28.4141 127.648 27.8047H130.332C130.301 28.5938 130.055 29.332 129.594 30.0195C129.133 30.6992 128.508 31.2383 127.719 31.6367C126.93 32.0352 126.078 32.2344 125.164 32.2344C123.391 32.2344 121.984 31.6602 120.945 30.5117C119.906 29.3633 119.387 27.7773 119.387 25.7539V25.4609C119.387 23.5312 119.902 21.9883 120.934 20.832C121.965 19.668 123.371 19.0859 125.152 19.0859C126.66 19.0859 127.887 19.5273 128.832 20.4102C129.785 21.2852 130.285 22.4375 130.332 23.8672H127.648C127.617 23.1406 127.367 22.543 126.898 22.0742C126.438 21.6055 125.848 21.3711 125.129 21.3711C124.207 21.3711 123.496 21.707 122.996 22.3789C122.496 23.043 122.242 24.0547 122.234 25.4141V25.8711C122.234 27.2461 122.48 28.2734 122.973 28.9531C123.473 29.625 124.191 29.9609 125.129 29.9609ZM137.691 29.9609C138.402 29.9609 138.992 29.7539 139.461 29.3398C139.93 28.9258 140.18 28.4141 140.211 27.8047H142.895C142.863 28.5938 142.617 29.332 142.156 30.0195C141.695 30.6992 141.07 31.2383 140.281 31.6367C139.492 32.0352 138.641 32.2344 137.727 32.2344C135.953 32.2344 134.547 31.6602 133.508 30.5117C132.469 29.3633 131.949 27.7773 131.949 25.7539V25.4609C131.949 23.5312 132.465 21.9883 133.496 20.832C134.527 19.668 135.934 19.0859 137.715 19.0859C139.223 19.0859 140.449 19.5273 141.395 20.4102C142.348 21.2852 142.848 22.4375 142.895 23.8672H140.211C140.18 23.1406 139.93 22.543 139.461 22.0742C139 21.6055 138.41 21.3711 137.691 21.3711C136.77 21.3711 136.059 21.707 135.559 22.3789C135.059 23.043 134.805 24.0547 134.797 25.4141V25.8711C134.797 27.2461 135.043 28.2734 135.535 28.9531C136.035 29.625 136.754 29.9609 137.691 29.9609ZM144.512 25.543C144.512 24.3008 144.758 23.1836 145.25 22.1914C145.742 21.1914 146.434 20.4258 147.324 19.8945C148.215 19.3555 149.238 19.0859 150.395 19.0859C152.105 19.0859 153.492 19.6367 154.555 20.7383C155.625 21.8398 156.203 23.3008 156.289 25.1211L156.301 25.7891C156.301 27.0391 156.059 28.1562 155.574 29.1406C155.098 30.125 154.41 30.8867 153.512 31.4258C152.621 31.9648 151.59 32.2344 150.418 32.2344C148.629 32.2344 147.195 31.6406 146.117 30.4531C145.047 29.2578 144.512 27.668 144.512 25.6836V25.543ZM147.359 25.7891C147.359 27.0938 147.629 28.1172 148.168 28.8594C148.707 29.5938 149.457 29.9609 150.418 29.9609C151.379 29.9609 152.125 29.5859 152.656 28.8359C153.195 28.0859 153.465 26.9883 153.465 25.543C153.465 24.2617 153.188 23.2461 152.633 22.4961C152.086 21.7461 151.34 21.3711 150.395 21.3711C149.465 21.3711 148.727 21.7422 148.18 22.4844C147.633 23.2188 147.359 24.3203 147.359 25.7891ZM166.391 30.7578C165.555 31.7422 164.367 32.2344 162.828 32.2344C161.453 32.2344 160.41 31.832 159.699 31.0273C158.996 30.2227 158.645 29.0586 158.645 27.5352V19.3203H161.492V27.5C161.492 29.1094 162.16 29.9141 163.496 29.9141C164.879 29.9141 165.812 29.418 166.297 28.4258V19.3203H169.145V32H166.461L166.391 30.7578ZM174.688 19.3203L174.77 20.7852C175.707 19.6523 176.938 19.0859 178.461 19.0859C181.102 19.0859 182.445 20.5977 182.492 23.6211V32H179.645V23.7852C179.645 22.9805 179.469 22.3867 179.117 22.0039C178.773 21.6133 178.207 21.418 177.418 21.418C176.27 21.418 175.414 21.9375 174.852 22.9766V32H172.004V19.3203H174.688ZM188.973 16.2383V19.3203H191.211V21.4297H188.973V28.5078C188.973 28.9922 189.066 29.3438 189.254 29.5625C189.449 29.7734 189.793 29.8789 190.285 29.8789C190.613 29.8789 190.945 29.8398 191.281 29.7617V31.9648C190.633 32.1445 190.008 32.2344 189.406 32.2344C187.219 32.2344 186.125 31.0273 186.125 28.6133V21.4297H184.039V19.3203H186.125V16.2383H188.973Z" fill="white"/>
</g>
<g filter="url(#filter1_d)">
<path d="M87.7188 114.938H90.6719V126.902C90.6719 128.535 90.1602 129.832 89.1367 130.793C88.1211 131.754 86.7773 132.234 85.1055 132.234C83.3242 132.234 81.9492 131.785 80.9805 130.887C80.0117 129.988 79.5273 128.738 79.5273 127.137H82.4805C82.4805 128.043 82.7031 128.727 83.1484 129.188C83.6016 129.641 84.2539 129.867 85.1055 129.867C85.9023 129.867 86.5352 129.605 87.0039 129.082C87.4805 128.551 87.7188 127.82 87.7188 126.891V114.938ZM107.453 127.781L110.078 114.938H113.02L109.082 132H106.246L103 119.543L99.6836 132H96.8359L92.8984 114.938H95.8398L98.4883 127.758L101.746 114.938H104.23L107.453 127.781ZM127.68 117.328H122.359V132H119.418V117.328H114.145V114.938H127.68V117.328Z" fill="white"/>
</g>
<path d="M103.293 97.7071C103.683 98.0976 104.317 98.0976 104.707 97.7071L111.071 91.3431C111.462 90.9526 111.462 90.3195 111.071 89.9289C110.681 89.5384 110.047 89.5384 109.657 89.9289L104 95.5858L98.3431 89.9289C97.9526 89.5384 97.3195 89.5384 96.9289 89.9289C96.5384 90.3195 96.5384 90.9526 96.9289 91.3431L103.293 97.7071ZM103 51V97H105V51H103Z" fill="black"/>
<defs>
<filter id="filter0_d" x="13.8672" y="10.5039" width="181.414" height="25.7305" filterUnits="userSpaceOnUse" color-interpolation-filters="sRGB">
<feFlood flood-opacity="0" result="BackgroundImageFix"/>
<feColorMatrix in="SourceAlpha" type="matrix" values="0 0 0 0 0 0 0 0 0 0 0 0 0 0 0 0 0 0 127 0"/>
<feOffset/>
<feGaussianBlur stdDeviation="2"/>
<feColorMatrix type="matrix" values="0 0 0 0 0 0 0 0 0 0 0 0 0 0 0 0 0 0 0.25 0"/>
<feBlend mode="normal" in2="BackgroundImageFix" result="effect1_dropShadow"/>
<feBlend mode="normal" in="SourceGraphic" in2="effect1_dropShadow" result="shape"/>
</filter>
<filter id="filter1_d" x="75.5273" y="110.938" width="56.1523" height="25.2969" filterUnits="userSpaceOnUse" color-interpolation-filters="sRGB">
<feFlood flood-opacity="0" result="BackgroundImageFix"/>
<feColorMatrix in="SourceAlpha" type="matrix" values="0 0 0 0 0 0 0 0 0 0 0 0 0 0 0 0 0 0 127 0"/>
<feOffset/>
<feGaussianBlur stdDeviation="2"/>
<feColorMatrix type="matrix" values="0 0 0 0 0 0 0 0 0 0 0 0 0 0 0 0 0 0 0.4 0"/>
<feBlend mode="normal" in2="BackgroundImageFix" result="effect1_dropShadow"/>
<feBlend mode="normal" in="SourceGraphic" in2="effect1_dropShadow" result="shape"/>
</filter>
</defs>
</svg>
