<svg width="208" height="257" viewBox="0 0 208 257" fill="none" xmlns="http://www.w3.org/2000/svg">
<rect width="208" height="257" fill="#E5E5E5"/>
<rect width="208" height="48" fill="#4387FD"/>
<rect x="69" y="100" width="70" height="48" fill="black"/>
<g filter="url(#filter0_d)">
<path d="M27.6523 27.6055C27.6523 26.8555 27.3867 26.2773 26.8555 25.8711C26.332 25.4648 25.3828 25.0547 24.0078 24.6406C22.6328 24.2266 21.5391 23.7656 20.7266 23.2578C19.1719 22.2812 18.3945 21.0078 18.3945 19.4375C18.3945 18.0625 18.9531 16.9297 20.0703 16.0391C21.1953 15.1484 22.6523 14.7031 24.4414 14.7031C25.6289 14.7031 26.6875 14.9219 27.6172 15.3594C28.5469 15.7969 29.2773 16.4219 29.8086 17.2344C30.3398 18.0391 30.6055 18.9336 30.6055 19.918H27.6523C27.6523 19.0273 27.3711 18.332 26.8086 17.832C26.2539 17.3242 25.457 17.0703 24.418 17.0703C23.4492 17.0703 22.6953 17.2773 22.1562 17.6914C21.625 18.1055 21.3594 18.6836 21.3594 19.4258C21.3594 20.0508 21.6484 20.5742 22.2266 20.9961C22.8047 21.4102 23.7578 21.8164 25.0859 22.2148C26.4141 22.6055 27.4805 23.0547 28.2852 23.5625C29.0898 24.0625 29.6797 24.6406 30.0547 25.2969C30.4297 25.9453 30.6172 26.707 30.6172 27.582C30.6172 29.0039 30.0703 30.1367 28.9766 30.9805C27.8906 31.8164 26.4141 32.2344 24.5469 32.2344C23.3125 32.2344 22.1758 32.0078 21.1367 31.5547C20.1055 31.0938 19.3008 30.4609 18.7227 29.6562C18.1523 28.8516 17.8672 27.9141 17.8672 26.8438H20.832C20.832 27.8125 21.1523 28.5625 21.793 29.0938C22.4336 29.625 23.3516 29.8906 24.5469 29.8906C25.5781 29.8906 26.3516 29.6836 26.8672 29.2695C27.3906 28.8477 27.6523 28.293 27.6523 27.6055ZM38.5273 32.2344C36.7227 32.2344 35.2578 31.668 34.1328 30.5352C33.0156 29.3945 32.457 27.8789 32.457 25.9883V25.6367C32.457 24.3711 32.6992 23.2422 33.1836 22.25C33.6758 21.25 34.3633 20.4727 35.2461 19.918C36.1289 19.3633 37.1133 19.0859 38.1992 19.0859C39.9258 19.0859 41.2578 19.6367 42.1953 20.7383C43.1406 21.8398 43.6133 23.3984 43.6133 25.4141V26.5625H35.3281C35.4141 27.6094 35.7617 28.4375 36.3711 29.0469C36.9883 29.6562 37.7617 29.9609 38.6914 29.9609C39.9961 29.9609 41.0586 29.4336 41.8789 28.3789L43.4141 29.8438C42.9062 30.6016 42.2266 31.1914 41.375 31.6133C40.5312 32.0273 39.582 32.2344 38.5273 32.2344ZM38.1875 21.3711C37.4062 21.3711 36.7734 21.6445 36.2891 22.1914C35.8125 22.7383 35.5078 23.5 35.375 24.4766H40.8008V24.2656C40.7383 23.3125 40.4844 22.5938 40.0391 22.1094C39.5938 21.6172 38.9766 21.3711 38.1875 21.3711ZM52.4727 21.9219C52.0977 21.8594 51.7109 21.8281 51.3125 21.8281C50.0078 21.8281 49.1289 22.3281 48.6758 23.3281V32H45.8281V19.3203H48.5469L48.6172 20.7383C49.3047 19.6367 50.2578 19.0859 51.4766 19.0859C51.8828 19.0859 52.2188 19.1406 52.4844 19.25L52.4727 21.9219ZM58.9531 28.3906L61.6367 19.3203H64.5781L60.1836 32H57.7109L53.2812 19.3203H56.2344L58.9531 28.3906ZM69.3945 32H66.5469V19.3203H69.3945V32ZM66.3711 16.0273C66.3711 15.5898 66.5078 15.2266 66.7812 14.9375C67.0625 14.6484 67.4609 14.5039 67.9766 14.5039C68.4922 14.5039 68.8906 14.6484 69.1719 14.9375C69.4531 15.2266 69.5938 15.5898 69.5938 16.0273C69.5938 16.457 69.4531 16.8164 69.1719 17.1055C68.8906 17.3867 68.4922 17.5273 67.9766 17.5273C67.4609 17.5273 67.0625 17.3867 66.7812 17.1055C66.5078 16.8164 66.3711 16.457 66.3711 16.0273ZM77.7148 29.9609C78.4258 29.9609 79.0156 29.7539 79.4844 29.3398C79.9531 28.9258 80.2031 28.4141 80.2344 27.8047H82.918C82.8867 28.5938 82.6406 29.332 82.1797 30.0195C81.7188 30.6992 81.0938 31.2383 80.3047 31.6367C79.5156 32.0352 78.6641 32.2344 77.75 32.2344C75.9766 32.2344 74.5703 31.6602 73.5312 30.5117C72.4922 29.3633 71.9727 27.7773 71.9727 25.7539V25.4609C71.9727 23.5312 72.4883 21.9883 73.5195 20.832C74.5508 19.668 75.957 19.0859 77.7383 19.0859C79.2461 19.0859 80.4727 19.5273 81.418 20.4102C82.3711 21.2852 82.8711 22.4375 82.918 23.8672H80.2344C80.2031 23.1406 79.9531 22.543 79.4844 22.0742C79.0234 21.6055 78.4336 21.3711 77.7148 21.3711C76.793 21.3711 76.082 21.707 75.582 22.3789C75.082 23.043 74.8281 24.0547 74.8203 25.4141V25.8711C74.8203 27.2461 75.0664 28.2734 75.5586 28.9531C76.0586 29.625 76.7773 29.9609 77.7148 29.9609ZM90.6523 32.2344C88.8477 32.2344 87.3828 31.668 86.2578 30.5352C85.1406 29.3945 84.582 27.8789 84.582 25.9883V25.6367C84.582 24.3711 84.8242 23.2422 85.3086 22.25C85.8008 21.25 86.4883 20.4727 87.3711 19.918C88.2539 19.3633 89.2383 19.0859 90.3242 19.0859C92.0508 19.0859 93.3828 19.6367 94.3203 20.7383C95.2656 21.8398 95.7383 23.3984 95.7383 25.4141V26.5625H87.4531C87.5391 27.6094 87.8867 28.4375 88.4961 29.0469C89.1133 29.6562 89.8867 29.9609 90.8164 29.9609C92.1211 29.9609 93.1836 29.4336 94.0039 28.3789L95.5391 29.8438C95.0312 30.6016 94.3516 31.1914 93.5 31.6133C92.6562 32.0273 91.707 32.2344 90.6523 32.2344ZM90.3125 21.3711C89.5312 21.3711 88.8984 21.6445 88.4141 22.1914C87.9375 22.7383 87.6328 23.5 87.5 24.4766H92.9258V24.2656C92.8633 23.3125 92.6094 22.5938 92.1641 22.1094C91.7188 21.6172 91.1016 21.3711 90.3125 21.3711ZM113.762 28.0273H107.152L105.77 32H102.688L109.133 14.9375H111.793L118.25 32H115.156L113.762 28.0273ZM107.984 25.6367H112.93L110.457 18.5586L107.984 25.6367ZM125.129 29.9609C125.84 29.9609 126.43 29.7539 126.898 29.3398C127.367 28.9258 127.617 28.4141 127.648 27.8047H130.332C130.301 28.5938 130.055 29.332 129.594 30.0195C129.133 30.6992 128.508 31.2383 127.719 31.6367C126.93 32.0352 126.078 32.2344 125.164 32.2344C123.391 32.2344 121.984 31.6602 120.945 30.5117C119.906 29.3633 119.387 27.7773 119.387 25.7539V25.4609C119.387 23.5312 119.902 21.9883 120.934 20.832C121.965 19.668 123.371 19.0859 125.152 19.0859C126.66 19.0859 127.887 19.5273 128.832 20.4102C129.785 21.2852 130.285 22.4375 130.332 23.8672H127.648C127.617 23.1406 127.367 22.543 126.898 22.0742C126.438 21.6055 125.848 21.3711 125.129 21.3711C124.207 21.3711 123.496 21.707 122.996 22.3789C122.496 23.043 122.242 24.0547 122.234 25.4141V25.8711C122.234 27.2461 122.48 28.2734 122.973 28.9531C123.473 29.625 124.191 29.9609 125.129 29.9609ZM137.691 29.9609C138.402 29.9609 138.992 29.7539 139.461 29.3398C139.93 28.9258 140.18 28.4141 140.211 27.8047H142.895C142.863 28.5938 142.617 29.332 142.156 30.0195C141.695 30.6992 141.07 31.2383 140.281 31.6367C139.492 32.0352 138.641 32.2344 137.727 32.2344C135.953 32.2344 134.547 31.6602 133.508 30.5117C132.469 29.3633 131.949 27.7773 131.949 25.7539V25.4609C131.949 23.5312 132.465 21.9883 133.496 20.832C134.527 19.668 135.934 19.0859 137.715 19.0859C139.223 19.0859 140.449 19.5273 141.395 20.4102C142.348 21.2852 142.848 22.4375 142.895 23.8672H140.211C140.18 23.1406 139.93 22.543 139.461 22.0742C139 21.6055 138.41 21.3711 137.691 21.3711C136.77 21.3711 136.059 21.707 135.559 22.3789C135.059 23.043 134.805 24.0547 134.797 25.4141V25.8711C134.797 27.2461 135.043 28.2734 135.535 28.9531C136.035 29.625 136.754 29.9609 137.691 29.9609ZM144.512 25.543C144.512 24.3008 144.758 23.1836 145.25 22.1914C145.742 21.1914 146.434 20.4258 147.324 19.8945C148.215 19.3555 149.238 19.0859 150.395 19.0859C152.105 19.0859 153.492 19.6367 154.555 20.7383C155.625 21.8398 156.203 23.3008 156.289 25.1211L156.301 25.7891C156.301 27.0391 156.059 28.1562 155.574 29.1406C155.098 30.125 154.41 30.8867 153.512 31.4258C152.621 31.9648 151.59 32.2344 150.418 32.2344C148.629 32.2344 147.195 31.6406 146.117 30.4531C145.047 29.2578 144.512 27.668 144.512 25.6836V25.543ZM147.359 25.7891C147.359 27.0938 147.629 28.1172 148.168 28.8594C148.707 29.5938 149.457 29.9609 150.418 29.9609C151.379 29.9609 152.125 29.5859 152.656 28.8359C153.195 28.0859 153.465 26.9883 153.465 25.543C153.465 24.2617 153.188 23.2461 152.633 22.4961C152.086 21.7461 151.34 21.3711 150.395 21.3711C149.465 21.3711 148.727 21.7422 148.18 22.4844C147.633 23.2188 147.359 24.3203 147.359 25.7891ZM166.391 30.7578C165.555 31.7422 164.367 32.2344 162.828 32.2344C161.453 32.2344 160.41 31.832 159.699 31.0273C158.996 30.2227 158.645 29.0586 158.645 27.5352V19.3203H161.492V27.5C161.492 29.1094 162.16 29.9141 163.496 29.9141C164.879 29.9141 165.812 29.418 166.297 28.4258V19.3203H169.145V32H166.461L166.391 30.7578ZM174.688 19.3203L174.77 20.7852C175.707 19.6523 176.938 19.0859 178.461 19.0859C181.102 19.0859 182.445 20.5977 182.492 23.6211V32H179.645V23.7852C179.645 22.9805 179.469 22.3867 179.117 22.0039C178.773 21.6133 178.207 21.418 177.418 21.418C176.27 21.418 175.414 21.9375 174.852 22.9766V32H172.004V19.3203H174.688ZM188.973 16.2383V19.3203H191.211V21.4297H188.973V28.5078C188.973 28.9922 189.066 29.3438 189.254 29.5625C189.449 29.7734 189.793 29.8789 190.285 29.8789C190.613 29.8789 190.945 29.8398 191.281 29.7617V31.9648C190.633 32.1445 190.008 32.2344 189.406 32.2344C187.219 32.2344 186.125 31.0273 186.125 28.6133V21.4297H184.039V19.3203H186.125V16.2383H188.973Z" fill="white"/>
</g>
<g filter="url(#filter1_d)">
<path d="M87.7188 114.938H90.6719V126.902C90.6719 128.535 90.1602 129.832 89.1367 130.793C88.1211 131.754 86.7773 132.234 85.1055 132.234C83.3242 132.234 81.9492 131.785 80.9805 130.887C80.0117 129.988 79.5273 128.738 79.5273 127.137H82.4805C82.4805 128.043 82.7031 128.727 83.1484 129.188C83.6016 129.641 84.2539 129.867 85.1055 129.867C85.9023 129.867 86.5352 129.605 87.0039 129.082C87.4805 128.551 87.7188 127.82 87.7188 126.891V114.938ZM107.453 127.781L110.078 114.938H113.02L109.082 132H106.246L103 119.543L99.6836 132H96.8359L92.8984 114.938H95.8398L98.4883 127.758L101.746 114.938H104.23L107.453 127.781ZM127.68 117.328H122.359V132H119.418V117.328H114.145V114.938H127.68V117.328Z" fill="white"/>
</g>
<path d="M103.293 97.7071C103.683 98.0976 104.317 98.0976 104.707 97.7071L111.071 91.3431C111.462 90.9526 111.462 90.3195 111.071 89.9289C110.681 89.5384 110.047 89.5384 109.657 89.9289L104 95.5858L98.3431 89.9289C97.9526 89.5384 97.3195 89.5384 96.9289 89.9289C96.5384 90.3195 96.5384 90.9526 96.9289 91.3431L103.293 97.7071ZM103 51V97H105V51H103Z" fill="black"/>
<rect x="11" y="220" width="186" height="37" fill="#70AC60"/>
<g filter="url(#filter2_d)">
<path d="M58.8291 239.557H54.7412V242.619H59.5195V244H53.0117V234.047H59.4717V235.441H54.7412V238.189H58.8291V239.557ZM63.4229 239.037L64.8311 236.604H66.6768L64.4141 240.247L66.752 244H64.9199L63.4434 241.471L61.9736 244H60.1279L62.4658 240.247L60.21 236.604H62.042L63.4229 239.037ZM74.2852 240.377C74.2852 241.521 74.0254 242.435 73.5059 243.118C72.9863 243.797 72.2891 244.137 71.4141 244.137C70.6029 244.137 69.9535 243.87 69.4658 243.337V246.844H67.8047V236.604H69.3359L69.4043 237.355C69.8919 236.763 70.555 236.467 71.3936 236.467C72.2959 236.467 73.0023 236.804 73.5127 237.479C74.0277 238.148 74.2852 239.08 74.2852 240.274V240.377ZM72.6309 240.233C72.6309 239.495 72.4827 238.91 72.1865 238.477C71.8949 238.044 71.4756 237.827 70.9287 237.827C70.2497 237.827 69.762 238.107 69.4658 238.668V241.949C69.7666 242.523 70.2588 242.811 70.9424 242.811C71.471 242.811 71.8835 242.599 72.1797 242.175C72.4805 241.746 72.6309 241.099 72.6309 240.233ZM78.9541 244.137C77.9014 244.137 77.0469 243.806 76.3906 243.146C75.7389 242.48 75.4131 241.596 75.4131 240.493V240.288C75.4131 239.55 75.5544 238.891 75.8369 238.312C76.124 237.729 76.5251 237.276 77.04 236.952C77.555 236.629 78.1292 236.467 78.7627 236.467C79.7699 236.467 80.5469 236.788 81.0938 237.431C81.6452 238.073 81.9209 238.982 81.9209 240.158V240.828H77.0879C77.138 241.439 77.3408 241.922 77.6963 242.277C78.0563 242.633 78.5075 242.811 79.0498 242.811C79.8109 242.811 80.4307 242.503 80.9092 241.888L81.8047 242.742C81.5085 243.184 81.112 243.528 80.6152 243.774C80.123 244.016 79.5693 244.137 78.9541 244.137ZM78.7559 237.8C78.3001 237.8 77.931 237.959 77.6484 238.278C77.3704 238.597 77.1927 239.042 77.1152 239.611H80.2803V239.488C80.2438 238.932 80.0957 238.513 79.8359 238.23C79.5762 237.943 79.2161 237.8 78.7559 237.8ZM87.0889 238.121C86.8701 238.085 86.6445 238.066 86.4121 238.066C85.651 238.066 85.1383 238.358 84.874 238.941V244H83.2129V236.604H84.7988L84.8398 237.431C85.2409 236.788 85.7969 236.467 86.5078 236.467C86.7448 236.467 86.9408 236.499 87.0957 236.562L87.0889 238.121ZM89.9053 244H88.2441V236.604H89.9053V244ZM88.1416 234.683C88.1416 234.427 88.2214 234.215 88.3809 234.047C88.5449 233.878 88.7773 233.794 89.0781 233.794C89.3789 233.794 89.6113 233.878 89.7754 234.047C89.9395 234.215 90.0215 234.427 90.0215 234.683C90.0215 234.933 89.9395 235.143 89.7754 235.312C89.6113 235.476 89.3789 235.558 89.0781 235.558C88.7773 235.558 88.5449 235.476 88.3809 235.312C88.2214 235.143 88.1416 234.933 88.1416 234.683ZM93.2822 236.604L93.3301 237.376C93.8496 236.77 94.5605 236.467 95.4629 236.467C96.4518 236.467 97.1286 236.845 97.4932 237.602C98.0309 236.845 98.7874 236.467 99.7627 236.467C100.578 236.467 101.185 236.692 101.581 237.144C101.982 237.595 102.187 238.26 102.196 239.14V244H100.535V239.188C100.535 238.718 100.433 238.374 100.228 238.155C100.022 237.937 99.6829 237.827 99.209 237.827C98.8307 237.827 98.5208 237.93 98.2793 238.135C98.0423 238.335 97.876 238.6 97.7803 238.928L97.7871 244H96.126V239.133C96.1032 238.262 95.6589 237.827 94.793 237.827C94.1276 237.827 93.6559 238.098 93.3779 238.641V244H91.7168V236.604H93.2822ZM107.159 244.137C106.106 244.137 105.252 243.806 104.596 243.146C103.944 242.48 103.618 241.596 103.618 240.493V240.288C103.618 239.55 103.759 238.891 104.042 238.312C104.329 237.729 104.73 237.276 105.245 236.952C105.76 236.629 106.334 236.467 106.968 236.467C107.975 236.467 108.752 236.788 109.299 237.431C109.85 238.073 110.126 238.982 110.126 240.158V240.828H105.293C105.343 241.439 105.546 241.922 105.901 242.277C106.261 242.633 106.713 242.811 107.255 242.811C108.016 242.811 108.636 242.503 109.114 241.888L110.01 242.742C109.714 243.184 109.317 243.528 108.82 243.774C108.328 244.016 107.774 244.137 107.159 244.137ZM106.961 237.8C106.505 237.8 106.136 237.959 105.854 238.278C105.576 238.597 105.398 239.042 105.32 239.611H108.485V239.488C108.449 238.932 108.301 238.513 108.041 238.23C107.781 237.943 107.421 237.8 106.961 237.8ZM112.963 236.604L113.011 237.458C113.558 236.797 114.275 236.467 115.164 236.467C116.704 236.467 117.488 237.349 117.516 239.112V244H115.854V239.208C115.854 238.739 115.752 238.392 115.547 238.169C115.346 237.941 115.016 237.827 114.556 237.827C113.886 237.827 113.387 238.13 113.059 238.736V244H111.397V236.604H112.963ZM121.296 234.806V236.604H122.602V237.834H121.296V241.963C121.296 242.245 121.351 242.451 121.46 242.578C121.574 242.701 121.774 242.763 122.062 242.763C122.253 242.763 122.447 242.74 122.643 242.694V243.979C122.264 244.084 121.9 244.137 121.549 244.137C120.273 244.137 119.635 243.433 119.635 242.024V237.834H118.418V236.604H119.635V234.806H121.296ZM128.296 244C128.223 243.859 128.159 243.629 128.104 243.31C127.576 243.861 126.929 244.137 126.163 244.137C125.42 244.137 124.814 243.925 124.345 243.501C123.875 243.077 123.641 242.553 123.641 241.929C123.641 241.14 123.932 240.536 124.516 240.117C125.104 239.693 125.942 239.481 127.031 239.481H128.05V238.996C128.05 238.613 127.943 238.308 127.729 238.08C127.514 237.848 127.188 237.731 126.751 237.731C126.373 237.731 126.063 237.827 125.821 238.019C125.58 238.205 125.459 238.445 125.459 238.736H123.798C123.798 238.331 123.932 237.952 124.201 237.602C124.47 237.246 124.835 236.968 125.295 236.768C125.76 236.567 126.277 236.467 126.847 236.467C127.713 236.467 128.403 236.686 128.918 237.123C129.433 237.556 129.697 238.167 129.711 238.955V242.291C129.711 242.956 129.804 243.487 129.991 243.884V244H128.296ZM126.471 242.804C126.799 242.804 127.106 242.724 127.394 242.564C127.685 242.405 127.904 242.191 128.05 241.922V240.527H127.154C126.539 240.527 126.076 240.634 125.767 240.849C125.457 241.063 125.302 241.366 125.302 241.758C125.302 242.077 125.407 242.332 125.616 242.523C125.83 242.71 126.115 242.804 126.471 242.804ZM133.218 244H131.557V233.5H133.218V244ZM140.409 240.302V244H138.68V234.047H142.487C143.599 234.047 144.481 234.336 145.133 234.915C145.789 235.494 146.117 236.259 146.117 237.212C146.117 238.187 145.796 238.946 145.153 239.488C144.515 240.031 143.62 240.302 142.467 240.302H140.409ZM140.409 238.914H142.487C143.103 238.914 143.572 238.771 143.896 238.483C144.219 238.192 144.381 237.772 144.381 237.226C144.381 236.688 144.217 236.259 143.889 235.94C143.561 235.617 143.109 235.451 142.535 235.441H140.409V238.914ZM151.347 238.121C151.128 238.085 150.902 238.066 150.67 238.066C149.909 238.066 149.396 238.358 149.132 238.941V244H147.471V236.604H149.057L149.098 237.431C149.499 236.788 150.055 236.467 150.766 236.467C151.003 236.467 151.199 236.499 151.354 236.562L151.347 238.121ZM151.839 240.233C151.839 239.509 151.982 238.857 152.27 238.278C152.557 237.695 152.96 237.248 153.479 236.938C153.999 236.624 154.596 236.467 155.271 236.467C156.269 236.467 157.077 236.788 157.697 237.431C158.322 238.073 158.659 238.925 158.709 239.987L158.716 240.377C158.716 241.106 158.575 241.758 158.292 242.332C158.014 242.906 157.613 243.351 157.089 243.665C156.569 243.979 155.968 244.137 155.284 244.137C154.241 244.137 153.404 243.79 152.775 243.098C152.151 242.4 151.839 241.473 151.839 240.315V240.233ZM153.5 240.377C153.5 241.138 153.657 241.735 153.972 242.168C154.286 242.596 154.724 242.811 155.284 242.811C155.845 242.811 156.28 242.592 156.59 242.154C156.904 241.717 157.062 241.076 157.062 240.233C157.062 239.486 156.9 238.894 156.576 238.456C156.257 238.019 155.822 237.8 155.271 237.8C154.728 237.8 154.298 238.016 153.979 238.449C153.66 238.878 153.5 239.52 153.5 240.377ZM161.854 236.604V244.656C161.854 245.413 161.664 245.989 161.286 246.386C160.912 246.787 160.363 246.987 159.639 246.987C159.333 246.987 159.039 246.949 158.757 246.871V245.559C158.93 245.6 159.126 245.62 159.345 245.62C159.896 245.62 160.179 245.319 160.192 244.718V236.604H161.854ZM160.049 234.683C160.049 234.427 160.129 234.215 160.288 234.047C160.452 233.878 160.685 233.794 160.985 233.794C161.286 233.794 161.519 233.878 161.683 234.047C161.847 234.215 161.929 234.427 161.929 234.683C161.929 234.933 161.847 235.143 161.683 235.312C161.519 235.476 161.286 235.558 160.985 235.558C160.685 235.558 160.452 235.476 160.288 235.312C160.129 235.143 160.049 234.933 160.049 234.683ZM166.892 244.137C165.839 244.137 164.984 243.806 164.328 243.146C163.676 242.48 163.351 241.596 163.351 240.493V240.288C163.351 239.55 163.492 238.891 163.774 238.312C164.062 237.729 164.463 237.276 164.978 236.952C165.493 236.629 166.067 236.467 166.7 236.467C167.707 236.467 168.484 236.788 169.031 237.431C169.583 238.073 169.858 238.982 169.858 240.158V240.828H165.025C165.076 241.439 165.278 241.922 165.634 242.277C165.994 242.633 166.445 242.811 166.987 242.811C167.748 242.811 168.368 242.503 168.847 241.888L169.742 242.742C169.446 243.184 169.049 243.528 168.553 243.774C168.061 244.016 167.507 244.137 166.892 244.137ZM166.693 237.8C166.238 237.8 165.868 237.959 165.586 238.278C165.308 238.597 165.13 239.042 165.053 239.611H168.218V239.488C168.181 238.932 168.033 238.513 167.773 238.23C167.514 237.943 167.154 237.8 166.693 237.8ZM174.192 242.811C174.607 242.811 174.951 242.69 175.225 242.448C175.498 242.207 175.644 241.908 175.662 241.553H177.228C177.209 242.013 177.066 242.444 176.797 242.845C176.528 243.241 176.163 243.556 175.703 243.788C175.243 244.021 174.746 244.137 174.213 244.137C173.178 244.137 172.358 243.802 171.752 243.132C171.146 242.462 170.843 241.537 170.843 240.356V240.186C170.843 239.06 171.144 238.16 171.745 237.485C172.347 236.806 173.167 236.467 174.206 236.467C175.086 236.467 175.801 236.724 176.353 237.239C176.909 237.75 177.2 238.422 177.228 239.256H175.662C175.644 238.832 175.498 238.483 175.225 238.21C174.956 237.937 174.612 237.8 174.192 237.8C173.655 237.8 173.24 237.996 172.948 238.388C172.657 238.775 172.508 239.365 172.504 240.158V240.425C172.504 241.227 172.647 241.826 172.935 242.223C173.226 242.615 173.646 242.811 174.192 242.811ZM180.563 234.806V236.604H181.869V237.834H180.563V241.963C180.563 242.245 180.618 242.451 180.728 242.578C180.841 242.701 181.042 242.763 181.329 242.763C181.521 242.763 181.714 242.74 181.91 242.694V243.979C181.532 244.084 181.167 244.137 180.816 244.137C179.54 244.137 178.902 243.433 178.902 242.024V237.834H177.686V236.604H178.902V234.806H180.563Z" fill="white"/>
</g>
<path d="M41 228H25V230.078H26.4035C26.4035 230.078 26.1228 242.247 26.4035 246.106C26.6842 249.965 39.5965 249.965 39.5965 246.106V230.078H41V228Z" fill="white"/>
<path d="M39.5965 230.078H41V228H25V230.078H26.4035M39.5965 230.078C39.5965 230.078 39.5965 242.247 39.5965 246.106C39.5965 249.965 26.6842 249.965 26.4035 246.106C26.1228 242.247 26.4035 230.078 26.4035 230.078M39.5965 230.078H26.4035" stroke="white"/>
<defs>
<filter id="filter0_d" x="13.8672" y="10.5039" width="181.414" height="25.7305" filterUnits="userSpaceOnUse" color-interpolation-filters="sRGB">
<feFlood flood-opacity="0" result="BackgroundImageFix"/>
<feColorMatrix in="SourceAlpha" type="matrix" values="0 0 0 0 0 0 0 0 0 0 0 0 0 0 0 0 0 0 127 0"/>
<feOffset/>
<feGaussianBlur stdDeviation="2"/>
<feColorMatrix type="matrix" values="0 0 0 0 0 0 0 0 0 0 0 0 0 0 0 0 0 0 0.25 0"/>
<feBlend mode="normal" in2="BackgroundImageFix" result="effect1_dropShadow"/>
<feBlend mode="normal" in="SourceGraphic" in2="effect1_dropShadow" result="shape"/>
</filter>
<filter id="filter1_d" x="75.5273" y="110.938" width="56.1523" height="25.2969" filterUnits="userSpaceOnUse" color-interpolation-filters="sRGB">
<feFlood flood-opacity="0" result="BackgroundImageFix"/>
<feColorMatrix in="SourceAlpha" type="matrix" values="0 0 0 0 0 0 0 0 0 0 0 0 0 0 0 0 0 0 127 0"/>
<feOffset/>
<feGaussianBlur stdDeviation="2"/>
<feColorMatrix type="matrix" values="0 0 0 0 0 0 0 0 0 0 0 0 0 0 0 0 0 0 0.4 0"/>
<feBlend mode="normal" in2="BackgroundImageFix" result="effect1_dropShadow"/>
<feBlend mode="normal" in="SourceGraphic" in2="effect1_dropShadow" result="shape"/>
</filter>
<filter id="filter2_d" x="49.0117" y="229.5" width="136.898" height="21.4873" filterUnits="userSpaceOnUse" color-interpolation-filters="sRGB">
<feFlood flood-opacity="0" result="BackgroundImageFix"/>
<feColorMatrix in="SourceAlpha" type="matrix" values="0 0 0 0 0 0 0 0 0 0 0 0 0 0 0 0 0 0 127 0"/>
<feOffset/>
<feGaussianBlur stdDeviation="2"/>
<feColorMatrix type="matrix" values="0 0 0 0 0 0 0 0 0 0 0 0 0 0 0 0 0 0 0.25 0"/>
<feBlend mode="normal" in2="BackgroundImageFix" result="effect1_dropShadow"/>
<feBlend mode="normal" in="SourceGraphic" in2="effect1_dropShadow" result="shape"/>
</filter>
</defs>
</svg>
